<svg xmlns="http://www.w3.org/2000/svg" xmlns:xlink="http://www.w3.org/1999/xlink" version="1.1" x="0px" y="0px" viewBox="0 0 100 100" style="enable-background:new 0 0 100 100;" xml:space="preserve">
  <style type="text/css">
    .st0 {
      fill: lightblue;
    }
  </style><path
    class="st0"
    d="M89,48.1H86v-5.4l-3.7,0l-0.1,0.9c0,0.1-0.6,5.7-5.2,8.4l-4.7-10.2L50,36.5l-22.3,5.3l-0.5,1L23,52  c-4.6-2.7-5.2-8.4-5.2-8.4l-0.1-0.9H14v5.4H11h-1v15.4h80V48.1H89z M19.9,58.9l-0.1,2.6H12V50h2.3c0.5,1.7,2,5.5,6.1,7.8L19.9,58.9z   M16,48.9v-4.3h0c0.4,1.9,1.8,6.5,6.2,9.1l-1.1,2.4C16.9,53.7,16.1,49.3,16,48.9z M21.7,61.5v-2l2.2-4.9h0l5.1-11.2l6.4-1.5  c-3,1.7-5.5,3.9-6.3,6.8c-0.5,1.7,0,2.8,0.6,3.5l-3.3,9.2H21.7z M46.2,56v5.5H28.6l2.8-7.9c2.1,1.1,5.4,1.5,8.5,1.5  c2.7,0,5.1-0.2,6.5-0.4L46.2,56z M46.3,52.7c-5,0.6-13,0.8-15-1.5c-0.3-0.3-0.6-0.9-0.3-1.9c1.3-4.8,8.9-7.5,14.1-9.1  c-4.6,2.3-11.2,6.1-10.6,9.3c0,0.3,0.2,1.1,1.2,1.7c1,0.7,2.4,1,4.3,1c1.7,0,3.9-0.3,6.4-0.9L46.3,52.7z M46.9,46.9l-0.3,2.5  c-6.3,1.6-8.7,0.9-9.6,0.4c-0.4-0.2-0.5-0.5-0.5-0.5l0-0.1c-0.4-1.6,5.1-5.2,11-7.9L46.9,46.9z M51.8,61.5h-3.6l0-5.4l1-12.5  l0.6-5.1l0.2,0l0.2,0l0.6,5.1l1,12.4V61.5z M53.1,46.9l-0.5-5.7c5.8,2.7,11.3,6.3,11,7.9l0,0.1c0,0-0.1,0.3-0.5,0.5  c-0.9,0.5-3.3,1.2-9.6-0.4L53.1,46.9z M60,52.3c1.9,0,3.3-0.3,4.3-1c0.9-0.7,1.1-1.4,1.2-1.7c0.7-3.2-6-7.1-10.6-9.3  c5.2,1.6,12.8,4.3,14.1,9.1c0.3,1.1,0,1.6-0.3,1.9c-2,2.2-9.9,2.1-15,1.5l-0.1-1.3C56.1,52,58.2,52.3,60,52.3z M53.8,61.5l0-5.6  l-0.1-1.3c1.4,0.2,3.9,0.4,6.5,0.4c3.1,0,6.3-0.3,8.5-1.5l2.8,7.9H53.8z M78.3,61.5h-4.8l-3.3-9.2c0.6-0.7,1.1-1.9,0.6-3.5  c-0.8-3-3.3-5.2-6.3-6.8l6.4,1.5L76,54.6h0l2.2,4.9V61.5z M77.7,53.8c4.5-2.5,5.9-7.2,6.3-9.1l0,4.3c-0.1,0.5-1,4.8-5.2,7.2  L77.7,53.8z M88,61.5h-7.8v-2.2l-0.7-1.5c4.2-2.3,5.7-6.2,6.2-7.9H88V61.5z"/></svg>
