<svg xmlns="http://www.w3.org/2000/svg" xmlns:xlink="http://www.w3.org/1999/xlink" xmlns:sketch="http://www.bohemiancoding.com/sketch/ns" viewBox="0 0 180 150" version="1.1" x="0px" y="0px">
  <title>rectangle_india</title>
  <desc>Created with Sketch.</desc>
  <g stroke="none" stroke-width="1" fill="none" fill-rule="evenodd" sketch:type="MSPage">
    <g sketch:type="MSArtboardGroup" transform="translate(-180.000000, -540.000000)">
      <g sketch:type="MSLayerGroup" transform="translate(180.000000, 540.000000)" fill="#fff"><path
        d="M90,75 C98.2842712,75 105,68.2842712 105,60 C105,51.7157288 98.2842712,45 90,45 C81.7157288,45 75,51.7157288 75,60 C75,68.2842712 81.7157288,75 90,75 Z M90,73.125 C97.2487373,73.125 103.125,67.2487373 103.125,60 C103.125,52.7512627 97.2487373,46.875 90,46.875 C82.7512627,46.875 76.875,52.7512627 76.875,60 C76.875,67.2487373 82.7512627,73.125 90,73.125 Z M90,62.5 C91.3807119,62.5 92.5,61.3807119 92.5,60 C92.5,58.6192881 91.3807119,57.5 90,57.5 C88.619288,57.5 87.5,58.6192881 87.5,60 C87.5,61.3807119 88.619288,62.5 90,62.5 C90,62.5 88.619288,62.5 90,62.5 Z M90,47.5 L91.25,54.375 L90,57.5 L88.75,54.375 L90,47.5 Z M98.8388348,51.1611652 L94.8613591,56.9064078 L91.767767,58.232233 L93.0935922,55.1386409 L98.8388348,51.1611652 Z M102.5,60 L95.625,61.25 L92.5,60 L95.625,58.75 L102.5,60 Z M98.8388348,68.8388348 L93.0935922,64.8613591 L91.767767,61.767767 L94.8613591,63.0935922 L98.8388348,68.8388348 Z M90,72.5 L88.75,65.625 L90,62.5 L91.25,65.625 L90,72.5 Z M81.1611652,68.8388348 L85.1386409,63.0935922 L88.232233,61.767767 L86.9064078,64.8613591 L81.1611652,68.8388348 Z M77.5,60 L84.375,58.75 L87.5,60 L84.375,61.25 L77.5,60 Z M81.1611652,51.1611652 L86.9064078,55.1386409 L88.232233,58.232233 L85.1386409,56.9064078 L81.1611652,51.1611652 Z"
        sketch:type="MSShapeGroup"/><path d="M6,77 L6,43 L6,43 L174,43 L174,77 L6,77 Z M6,83 L6,114 L174,114 L174,83 L6,83 Z M6,37 L6,6 L174,6 L174,37 L6,37 L6,37 Z M0,0 L0,120 L180,120 L180,0 L0,0 Z" sketch:type="MSShapeGroup"/></g>
    </g>
  </g>
</svg>
