<svg xmlns="http://www.w3.org/2000/svg" xmlns:xlink="http://www.w3.org/1999/xlink" version="1.1" x="0px" y="0px" viewBox="0 0 100 125" style="enable-background:new 0 0 100 100;" xml:space="preserve">
  <style type="text/css">
    .st0 {
      fill: #FFF;
    }
  </style>
  <g><path class="st0" d="M54.5,27.7h-8.2l-1.1,9.9h10.4L54.5,27.7z M47.4,35.6l0.6-5.9h4.7l0.6,5.9H47.4z"/><path class="st0" d="M53.6,18.5h-6.1l-0.9,7.2h7.9L53.6,18.5z M48.7,23.7l0.4-3.2h2.7l0.4,3.2H48.7z"/><path class="st0" d="M55.8,39.6H45.1l-1.7,15.8h14.2L55.8,39.6z M45.5,53.3l1.3-11.8h7.3l1.3,11.8H45.5z"/><path class="st0" d="M47.6,16.5h5.8l-0.5-4.6l1.5-1.9h-7.7l1.5,1.9L47.6,16.5z M50,12h0.8l0.3,2.5h-1.4L50,12z"/><path class="st0" d="M59.6,73.8l-1.8-16.5H43.1L41.7,70h-5c-1.9-4.3-6.1-7.1-10.8-7.1c-4.7,0-8.9,2.8-10.9,7.1h-5v20h80V68.7L59.6,73.8z M88,88   H12V72h4.4l0.2-0.6c1.5-3.9,5.2-6.5,9.3-6.5s7.8,2.5,9.3,6.5l0.2,0.6h8.1l1.4-12.7H56l1.8,16.8L88,71V88z"/></g>
</svg>
